<svg xmlns="http://www.w3.org/2000/svg" viewBox="0 0 218.88 218.88"><defs><style>.cls-1{fill:#fff;}</style></defs><g id="Layer_2" data-name="Layer 2"><g id="SvgjsSvg1001"><path class="cls-1" d="M109.44,0a109.58,109.58,0,1,0,77.35,32.1A109.46,109.46,0,0,0,109.44,0Zm0,201.6a92.17,92.17,0,1,1,46.08-12.35,92.19,92.19,0,0,1-46.08,12.35Z"/><path class="cls-1" d="M149,103.42,87.46,72.69a6.66,6.66,0,0,0-6.54.28,6.74,6.74,0,0,0-3.18,5.73v61.48a6.68,6.68,0,0,0,6.73,6.72,6.61,6.61,0,0,0,3-.71L149,115.45a6.7,6.7,0,0,0,3.26-3.59,6.63,6.63,0,0,0,0-4.84,6.7,6.7,0,0,0-3.26-3.59Z"/></g></g></svg>