<?xml version="1.0" encoding="UTF-8"?><svg id="a" xmlns="http://www.w3.org/2000/svg" viewBox="0 0 235.28 31.18"><defs><style>.b{fill:#00aa59;}.c{fill:#fff;}</style></defs><g><g><polygon class="b" points="22.68 5.67 22.68 31.18 28.35 25.51 28.35 0 22.68 5.67"/><polygon class="b" points="11.34 31.18 17.01 25.51 17.01 0 11.34 5.67 11.34 31.18"/><polygon class="b" points="0 31.18 5.67 25.51 5.67 0 0 5.67 0 31.18"/></g><g><path class="c" d="M91.3,26.93v-1.84c-.88,1.02-2.28,2.23-4.77,2.23-2.87,0-5.24-1.82-5.24-4.92,0-3.78,3.54-5.15,7-5.53l1.35-.15c1.32-.12,1.79-.85,1.79-1.73,0-1.08-1.02-1.87-2.58-1.87-1.79,0-3.51,1.29-4.16,2.31l-2.05-2.43c1.26-1.64,3.48-2.78,6.38-2.78,3.75,0,5.91,1.93,5.91,5.15v11.57h-3.63Zm-.03-7.82l-2.46,.29c-2.14,.26-4.01,1.02-4.01,2.84,0,1.29,1.11,2.17,2.55,2.17,1.7,0,3.1-1.11,3.98-2.23v-3.07h-.06Z"/><path class="c" d="M101.75,26.93h-3.6V10.59h3.6v1.84c1.29-1.17,3.22-2.23,5.33-2.23,1.93,0,4.57,1.11,4.57,5.1v11.62h-3.6v-10.69c0-1.61-.67-2.99-2.34-2.99-1.38,0-3.13,1.17-3.95,1.93v11.74Z"/><path class="c" d="M124.32,10.59h3.6V26.93h-3.72v-1.76c-1,.94-2.61,2.14-4.71,2.14s-5.04-1.11-5.04-5.21V10.59h3.6v10.34c0,1.9,.82,3.22,2.52,3.22,1.41,0,2.72-.91,3.75-2.05V10.59Z"/><path class="c" d="M135.5,26.93h-3.6V5.44l3.6-3.57V26.93Z"/><path class="c" d="M141.35,3.24c1.23,0,2.28,1.02,2.28,2.28s-1.05,2.31-2.28,2.31-2.31-1.05-2.31-2.31,1.05-2.28,2.31-2.28Zm1.87,23.69h-3.75V10.59h3.75V26.93Z"/><path class="c" d="M154.64,13.58h-3.43v13.35h-3.6V13.58h-2.19v-2.99h2.19v-3.37c0-2.69,1.73-5.12,5.12-5.12,1.58,0,2.9,.44,3.69,.85l-1.14,2.81c-.5-.29-1.26-.59-1.99-.59-1.14,0-2.08,.85-2.08,2.25v3.16h4.27l-.85,2.99Z"/><path class="c" d="M158.92,19.73c.03,2.64,1.93,4.51,4.19,4.51,1.7,0,3.46-1.14,4.22-2.52l2.25,2.11c-1.32,1.93-3.87,3.48-6.82,3.48-4.66,0-7.55-3.51-7.55-8.55s3.13-8.55,7.67-8.55,7.38,2.84,7.2,9.52h-11.16Zm7.38-2.75c0-1.99-1.26-3.86-3.46-3.86s-3.75,1.99-3.81,3.86h7.26Z"/><path class="c" d="M60.62,26.93h-3.92V4.25h4.25l6.68,11.16h.06l6.65-11.16h4.16V26.93h-3.95V10.87h-.06l-6.88,11.42-6.91-11.42h-.06V26.93Z"/></g></g><g><path class="c" d="M196.25,20l2.97,4.07-9.26,.63c2.68-3.75,3.59-5.59,4.71-8.09l-2.61-.96c-2.44,5.95-5.94,9.4-5.94,9.4l.91,2.69,13.78-1.51,1.48,2.02,2.06-1.51-6.02-8.24-2.06,1.51Zm-4.79-11.48l-2.69-.98c-.36,1.31-.74,2.51-1.23,3.75h-7.9v2.56h6.83c-1.98,4.27-4.69,7.8-7.89,10.32l2.12,2.12c3.52-3.05,6.47-6.88,8.84-12.45h14.79v-2.56h-13.77c.37-1.03,.57-1.69,.89-2.77Zm1.88-4.46V.93h-2.7v3.12h-11v5.4h2.47v-2.93h19.76v2.93h2.47V4.06h-11Z"/><path class="c" d="M229.15,4.34h-2.67V21.34h2.67V4.34Zm3.46-2.87V25.06h-7.27l2.67,2.67h7.28V1.47h-2.67Zm-13.77,3.34c1.66-.36,3.62-.95,4.95-1.46l-1.08-2.39c-2.69,1.2-8.22,2.47-12.41,3.12l.53,2.14s3.54-.48,5.31-.83v3.8h-5.81v2.5h5.81s-2.14,4.36-6.39,9.63l1.96,1.96s2.92-3.98,4.43-7.16v11.62h2.7v-11.62s2.66,2.89,3.65,4.08l1.9-1.9c-.65-.62-5.55-5.2-5.55-5.2v-1.4h5.64v-2.5h-5.64V4.81Z"/></g></svg>