<svg width="1282" height="112" viewBox="0 0 1282 112" fill="none" xmlns="http://www.w3.org/2000/svg">
<g opacity="0.1">
<mask id="mask0_648:1134" style="mask-type:alpha" maskUnits="userSpaceOnUse" x="0" y="0" width="1282" height="112">
<rect width="1282" height="112" fill="#503AE7"/>
</mask>
<g mask="url(#mask0_648:1134)">
<path fill-rule="evenodd" clip-rule="evenodd" d="M2436.61 101.245C2404.88 101.12 2373.14 101.203 2341.53 101.245C2305.68 101.203 2269.72 101.162 2233.87 101.12C2209.78 100.869 2185.69 100.617 2161.59 100.366C2161.12 100.366 2160.65 100.617 2160.07 100.785C2157.95 100.785 2155.72 100.743 2153.6 100.743C2152.9 100.408 2152.07 99.7384 2151.37 99.7384C2115.52 99.4036 2079.68 99.1525 2043.95 98.8176C2023.73 98.6083 2003.52 98.399 1983.42 98.0223C1978.37 97.9386 1970.97 96.1388 1968.73 96.8085C1954.16 101.245 1942.88 98.0642 1931.83 95.4691C1926.66 96.8504 1921.96 98.1061 1917.73 99.278C1907.97 97.5619 1899.16 95.9714 1890.69 94.4646C1886.7 96.3062 1882.94 98.0223 1877.88 100.324C1863.66 91.8276 1849.09 96.6411 1834.28 99.6547C1831.34 97.7712 1828.99 96.2644 1826.29 94.5064C1815.12 95.7621 1804.43 96.9341 1795.5 97.9386C1791.27 96.4737 1788.09 95.3436 1784.92 94.2134C1779.28 98.8595 1765.88 91.7439 1759.53 96.2225C1759.42 96.3062 1752.25 94.5901 1748.6 94.6739C1744.49 94.7576 1740.61 95.9295 1735.91 96.7248C1734.62 94.925 1733.33 93.2926 1732.27 91.8695C1722.28 91.0742 1715.46 91.4509 1714.4 95.3017C1706.18 92.9996 1705.94 98.1061 1697.83 97.1434C1696.66 96.097 1695.25 94.7157 1693.72 93.3345C1693.01 93.4182 1692.07 93.5019 1691.6 93.5856C1691.6 96.5574 1691.6 99.4873 1691.6 102.459C1690.43 102.501 1689.37 102.501 1688.31 102.417C1687.72 98.1898 1687.02 94.0042 1686.43 89.7767C1675.15 93.6275 1665.16 95.9295 1650.7 93.1252C1648.94 91.3254 1646.94 89.2326 1645.18 87.3909C1637.54 90.2371 1630.37 92.9159 1624.14 95.218C1618.15 92.7485 1611.92 90.1953 1606.04 87.7676C1599.46 90.3208 1594.88 92.1625 1587.12 95.0506C1587.12 96.4318 1587.12 99.4036 1587.12 102.334C1586.3 102.375 1585.36 102.375 1584.54 102.375C1583.13 97.3945 1581.72 92.4136 1579.83 85.9678C1575.6 89.4419 1573.25 91.2835 1570.43 93.5856C1567.26 90.279 1564.67 87.7258 1562.21 85.1307C1560.91 85.2144 1559.62 85.34 1558.33 85.4237C1557.5 87.4746 1556.68 89.5256 1555.39 92.6648C1553.51 90.4045 1552.57 89.4 1551.63 88.3117C1549.04 89.0651 1546.93 89.693 1542.81 90.9068C1541.99 85.9259 1541.4 82.0333 1540.82 78.1407C1539.99 78.1407 1539.17 78.1407 1538.35 78.1407C1536.23 82.703 1534.12 87.2235 1531.3 93.5019C1527.07 89.107 1524.13 86.3026 1521.42 83.4983C1520.48 83.5401 1519.9 83.582 1518.6 83.582C1518.6 87.0979 1518.6 90.6138 1518.6 94.1297C1517.78 94.1297 1517.08 94.1716 1516.37 94.1716C1514.96 91.3254 1513.55 88.4792 1512.14 85.633C1511.08 85.7167 1510.14 85.8004 1509.2 85.8422C1507.32 89.5256 1505.32 93.2508 1503.44 96.9341C1501.8 88.8559 1506.85 80.5684 1497.33 72.1553C1495.57 78.9778 1494.04 85.2144 1492.51 91.4509C1491.22 91.4091 1489.93 91.4091 1488.63 91.3672C1486.52 88.7722 1484.4 86.1771 1482.29 83.582C1481.11 83.6239 1479.94 83.6657 1478.64 83.7076C1478.64 87.2653 1478.64 90.8231 1478.64 94.4227C1477 94.4227 1475.35 94.3809 1473.71 94.3809C1473.12 90.1953 1472.42 86.0515 1471.83 81.6148C1469.24 82.41 1467.83 82.9123 1465.95 83.4564C1463.84 76.9687 1461.84 70.7741 1459.25 63.1562C1457.25 70.8996 1455.61 77.178 1453.96 83.4564C1452.44 86.5956 1450.91 89.7767 1449.38 92.9159C1448.32 92.874 1447.38 92.8322 1446.32 92.7903C1445.85 89.693 1445.27 86.6375 1444.68 82.7867C1440.68 87.0979 1437.74 90.4464 1434.45 93.7949C1434.45 89.9441 1434.45 86.0515 1434.45 81.5729C1421.76 83.0797 1422.58 80.1498 1422.47 77.6803C1422.23 71.9879 1422.35 66.3373 1422.35 60.6449C1416.59 70.0625 1413.65 79.4801 1410.95 88.8977C1410.36 90.9905 1410.36 93.1252 1410.01 95.2598C1409.54 95.2598 1409.07 95.218 1408.6 95.218C1406.95 91.2417 1405.42 87.2653 1403.78 83.289C1402.49 83.3309 1401.19 83.4146 1399.9 83.4564C1399.43 86.0934 1399.08 88.7303 1398.61 91.3672C1397.79 91.3672 1396.96 91.3672 1396.14 91.3672C1395.67 87.0979 1395.08 82.7867 1394.61 78.5174C1392.85 78.5593 1391.09 78.5593 1389.32 78.6011C1388.38 82.3263 1387.56 86.0515 1386.62 89.7767C1384.86 89.7348 1382.98 89.7348 1381.33 89.693C1381.33 78.643 1381.33 67.5511 1381.33 56.5011C1379.69 56.5011 1378.51 56.5011 1377.22 56.543C1374.51 70.4392 1371.81 84.2936 1369.11 98.1898C1367.7 98.1479 1366.29 98.1479 1365.11 98.1061C1365.11 96.3062 1365.11 94.5483 1365.11 92.7485C1365.11 90.9487 1365.11 89.107 1365.11 87.3909C1349.25 86.3026 1342.19 83.6239 1341.96 78.5174C1341.72 72.4901 1341.84 66.421 1341.84 60.3937C1332.56 69.2672 1336.67 79.3127 1318.22 87.0142C1316.57 84.4191 1314.93 81.824 1313.17 79.1871C1310.82 80.6102 1308.35 82.0752 1306 83.5401C1304.94 83.4983 1303.88 83.4146 1302.71 83.3727C1302.71 75.2945 1302.71 67.1744 1302.71 58.6358C1297.42 66.421 1292.13 73.5784 1285.9 82.2845C1284.37 79.1453 1283.78 77.6384 1282.61 75.2526C1276.73 78.936 1271.91 81.9078 1265.57 85.9259C1263.69 77.1362 1266.39 69.5602 1263.69 62.1936C1261.92 62.1936 1260.16 62.2354 1258.4 62.2354C1257.81 66.3792 1257.11 70.5229 1256.52 74.6667C1255.34 74.6248 1254.28 74.5829 1252.99 74.5829C1252.99 70.3136 1252.99 66.0025 1252.99 61.7331C1252.64 61.7331 1251.82 61.7331 1251.23 61.6913C1249.94 64.2864 1248.64 66.8814 1246.88 70.3973C1242.88 68.472 1241.24 67.7186 1240.53 67.3419C1236.42 73.0761 1232.19 78.8104 1227.61 85.2562C1205.75 72.3646 1220.67 58.3847 1212.8 45.6186C1210.92 45.6604 1209.04 45.7023 1207.39 45.7441C1207.39 54.4502 1207.39 63.1562 1207.39 71.8623C1206.22 71.8623 1205.51 71.8205 1204.57 71.8205C1203.75 68.5138 1202.93 65.1653 1202.1 61.8587C1200.1 61.9006 1198.11 61.9424 1196.11 61.9843C1193.52 74.1225 1190.82 86.2608 1188.23 98.399C1186.94 95.5528 1184.71 92.7066 1184.59 89.8604C1184.12 78.643 1184.47 67.4674 1184.47 56.25C1183.06 56.25 1181.65 56.25 1180.48 56.25C1180.48 68.8487 1180.48 81.4892 1180.48 94.0879C1179.3 94.0879 1178.24 94.0879 1177.07 94.0879C1175.19 78.8104 1173.19 63.4911 1171.31 48.2136C1170.61 48.2136 1169.9 48.2136 1169.19 48.2136C1168.02 57.2545 1166.84 66.2536 1165.79 75.2945C1164.85 75.7549 1163.79 76.2153 1162.85 76.6339C1162.5 76.4665 1161.91 76.299 1161.91 76.0898C1161.91 71.2345 1161.91 66.3792 1161.91 61.482C1160.26 61.482 1158.62 61.4401 1156.97 61.4401C1155.8 66.0862 1154.86 70.774 1153.56 75.4201C1151.33 83.4983 1148.86 91.5347 1146.51 99.6129C1146.16 85.0888 1145.81 70.5648 1145.45 56.0826C1143.34 56.0407 1141.11 56.0407 1138.99 55.9989C1137.11 66.2955 1138.99 76.6758 1137.7 87.0142C1136.29 87.0142 1135.11 86.9723 1133.47 86.9723C1133.47 69.058 1133.47 51.1436 1133.47 33.2292C1129 45.9116 1127.83 58.6358 1126.42 71.3182C1126.06 73.9551 1124.06 76.5502 1122.89 79.1871C1122.89 76.0479 1122.89 72.9087 1122.89 69.7695C1121.24 69.7276 1119.48 69.7276 1117.84 69.6858C1115.6 74.2062 1113.37 78.6848 1111.25 83.2053C1109.96 81.0288 1108.2 78.8941 1107.61 76.7176C1105.61 69.8532 1103.97 62.9888 1102.2 56.1244C1101.5 56.1244 1100.91 56.1663 1100.09 56.1663C1100.09 71.653 1100.09 87.0979 1100.09 102.585C1098.91 102.585 1096.92 102.585 1095.27 102.585C1095.39 83.289 1095.74 63.9515 1095.62 44.6559C1095.62 42.1445 1092.92 39.675 1091.51 37.1636C1088.22 48.2973 1088.45 59.1799 1087.98 70.0625C1087.87 72.6994 1085.63 75.2945 1084.34 77.9314C1082.93 74.29 1081.4 70.6485 1079.99 67.007C1079.05 67.0489 1078.11 67.0907 1077.17 67.1744C1075.64 72.0716 1074.23 76.9687 1072.71 81.9078C1071.41 79.2708 1069.41 76.6758 1069.18 74.0388C1068.59 69.3928 1069.06 64.7468 1069.06 60.1008C1067.42 60.1008 1065.65 60.0589 1064.01 60.0589C1058.25 72.6994 1063.54 85.6329 1059.07 98.3572C1057.19 78.4337 1055.31 58.5102 1053.43 38.5867C1049.9 50.6831 1050.02 62.7377 1049.67 74.7504C1049.55 77.6384 1047.44 80.5265 1046.26 83.4564C1044.85 81.1544 1042.62 78.8523 1042.27 76.5083C1041.68 71.4437 1042.03 66.3792 1042.03 61.3146C1040.62 61.3146 1039.33 61.3146 1037.92 61.3146C1037.92 64.6212 1038.27 67.9278 1037.56 71.2345C1037.45 71.6949 1032.86 72.0716 1030.4 72.4901C1029.1 69.8532 1026.99 67.2581 1026.75 64.6212C1026.28 57.2127 1026.63 49.8042 1026.63 42.3956C1025.69 42.3956 1024.75 42.3956 1023.81 42.3956C1021.82 56.8778 1019.7 71.36 1017.7 85.8422C1016.76 85.8422 1015.94 85.8004 1015 85.8004C1015 83.5401 1015 81.3218 1015 79.0616C1015 61.5239 1015.12 43.9443 1014.88 26.4066C1014.88 24.272 1013.24 22.1373 1012.3 19.9608C1010.65 20.0445 1008.89 20.1282 1007.24 20.2119C1007.24 22.4303 1007.24 24.6905 1007.24 26.9089C1007.24 40.5958 1007.48 54.2828 1007.12 67.9278C1007.01 70.3136 1004.77 72.6994 1003.48 75.0852C1002.54 64.9561 1001.48 54.8687 1000.54 44.7396C999.251 44.7396 998.075 44.7396 996.783 44.7396C995.137 56.6686 993.609 68.5975 991.964 80.5684C990.671 77.9733 988.321 75.3364 988.203 72.7413C987.851 55.8733 988.086 38.9634 988.086 22.0955C988.086 19.2492 988.086 16.4449 988.086 13.5987C983.149 26.0718 981.269 38.503 980.564 50.9761C979.859 63.4492 980.446 75.9223 980.446 88.3954C979.624 88.3954 978.683 88.3955 977.861 88.3536C975.863 65.2072 973.982 42.0608 971.984 18.9563C970.809 18.9563 969.751 18.9563 968.576 18.9563C968.576 38.4612 968.576 57.9242 968.576 77.4292C967.753 77.4292 966.931 77.4292 966.108 77.4292C964.11 65.7095 962.112 53.9479 960.114 42.2282C959.762 42.2282 959.409 42.2282 959.056 42.2282C957.294 50.8506 955.531 59.4729 953.768 68.0953C946.246 55.4129 955.296 42.4375 943.895 29.9644C942.603 30.8434 942.25 31.7642 942.133 32.6432C940.84 46.958 939.547 61.2727 938.019 75.5875C937.784 77.3036 935.551 78.9778 934.376 80.6939C934.376 63.8259 934.376 46.9998 934.376 30.1318C933.2 30.1318 931.908 30.1318 930.615 30.1318C930.615 37.1636 931.438 44.2373 930.497 51.2691C929.557 58.3428 934.846 65.6676 922.976 72.4901C922.976 60.5193 922.976 48.5903 922.976 36.6195C922.153 36.6195 921.448 36.6195 920.742 36.6195C918.862 44.4466 916.982 52.2318 915.101 60.0589C908.402 50.9761 916.394 41.4748 902.878 32.685C902.878 48.4648 902.878 64.2026 902.878 79.9824C900.41 79.9824 898.53 79.9824 896.297 80.0242C895.239 62.068 896.414 44.0699 893.594 26.1136C890.421 37.4566 889.48 48.7996 888.07 60.1008C887.717 62.7377 885.72 65.3746 884.427 67.9697C884.427 60.8123 884.427 53.6131 884.427 46.4557C882.781 46.4557 881.136 46.4975 879.49 46.4975C879.49 55.9152 879.49 65.3746 879.49 74.7922C862.332 63.4911 871.851 51.2273 865.622 39.5076C858.453 58.2172 863.154 77.0525 858.688 95.804C857.043 79.2708 855.397 62.7795 853.87 46.2464C852.342 46.2464 850.931 46.2464 849.286 46.2464C849.286 53.6549 849.286 61.0634 849.286 68.4301C845.995 66.1699 845.76 63.9515 845.76 61.7331C845.76 48.7578 845.995 35.7405 845.643 22.7652C845.525 19.6259 843.292 16.5286 841.999 13.3894C841.177 13.4312 840.354 13.4731 839.531 13.515C838.003 30.0062 836.358 46.4557 834.83 62.947C833.89 62.947 832.95 62.947 832.009 62.947C830.247 51.018 828.366 39.089 826.603 27.16C825.428 27.16 824.135 27.16 822.96 27.16C822.96 29.2947 822.96 31.4294 822.96 33.564C822.96 53.1527 823.077 72.7831 822.842 92.3718C822.842 95.7621 820.727 99.1106 819.669 102.501C819.199 102.92 819.199 103.38 819.669 103.798C819.081 104.468 818.494 105.138 816.849 107.063C815.791 104.636 815.321 103.547 814.851 102.459C814.851 81.9915 814.851 61.5239 814.851 41.0981C813.675 41.0981 812.03 41.0981 810.737 41.0981C810.737 51.018 810.737 60.9797 810.737 70.8996C804.978 57.2127 812.383 43.3165 801.1 29.797C799.807 43.1909 800.042 56.5848 799.689 69.9369C799.572 72.532 797.339 75.1271 796.164 77.7222C796.164 71.5693 796.986 65.3746 795.929 59.2218C793.696 46.1208 790.64 33.0199 787.819 19.9189C785.116 20.9653 784.646 22.0536 784.529 23.1C783.353 49.9716 782.296 76.8432 781.12 103.715C780.65 105.682 780.18 107.607 779.71 109.575C779.005 109.575 778.3 109.575 777.594 109.575C777.124 107.189 776.772 104.803 776.302 102.417C776.302 86.9723 776.302 71.5275 776.302 56.0826C774.656 56.0826 773.481 56.0826 772.188 56.0826C772.188 59.1799 772.188 62.2773 772.188 65.3746C770.543 65.3746 769.367 65.3746 767.957 65.3328C766.664 45.2419 765.254 25.1509 763.961 5.06004C763.021 5.06004 762.081 5.06004 761.258 5.06004C761.258 27.0763 761.258 49.0926 761.258 71.1089C760.083 71.1089 758.79 71.1089 757.615 71.1089C757.615 54.5758 757.615 38.0426 757.615 21.5513C756.44 21.5513 755.147 21.5513 753.972 21.5095C753.972 25.7369 753.972 29.9644 753.972 35.322C750.328 33.3966 749.035 32.5595 747.508 31.7642C746.097 31.7642 744.569 31.7642 743.276 31.7223C743.276 40.1354 743.276 48.5485 743.276 57.0034C742.101 56.9615 741.044 56.9197 739.868 56.8778C737.988 52.7341 736.107 48.6322 734.227 44.4884C732.934 44.5303 731.876 44.5722 730.231 44.614C730.231 54.785 730.231 64.9979 730.231 75.1689C729.056 75.1689 727.763 75.1689 726.118 75.1689C726.118 56.0407 726.118 36.8706 726.118 17.7424C724.942 17.7424 723.297 17.7424 722.004 17.7843C722.004 21.342 722.004 24.858 722.004 28.4157C721.181 28.4157 720.829 28.3739 720.241 28.3739C718.126 20.5886 716.01 12.8453 714.012 5.06004C713.072 5.06004 712.249 5.06004 711.309 5.06004C711.309 7.32026 711.309 9.53864 711.309 11.7989C711.309 30.2574 711.427 48.7578 711.074 67.2163C711.074 69.8114 708.723 72.4064 707.431 75.0015C707.431 68.179 707.313 61.3564 707.313 54.5339C705.55 54.5339 703.787 54.492 702.024 54.492C699.791 60.9379 697.558 67.4256 695.325 73.8714C694.268 73.8295 693.092 73.8295 692.387 73.7877C692.387 67.2581 692.387 60.7286 692.387 54.1572C691.565 54.1153 690.859 54.0735 690.037 53.9898C688.979 55.1199 687.921 56.25 686.746 57.3801C685.806 57.3801 684.865 57.3801 683.925 57.3801C681.222 38.5867 678.519 19.7934 675.698 1C674.641 21.8025 674.641 42.5631 658.304 62.4447C657.834 61.2727 657.129 59.6822 656.071 56.7523C653.721 63.24 651.958 68.3045 649.842 73.3691C649.842 53.4456 649.842 33.4803 649.842 13.5568C647.844 13.5568 645.729 13.5568 643.261 13.5568C643.261 31.7642 643.261 49.9716 643.261 68.179C641.615 68.179 639.97 68.179 637.972 68.179C637.972 57.0871 637.972 46.0371 637.972 34.9453C633.036 48.7578 638.912 62.9051 624.104 75.8386C622.224 57.0034 620.461 37.7078 618.698 18.4958C617.405 18.4958 615.877 18.4958 614.702 18.4958C614.702 33.6059 614.702 48.7996 614.702 63.9515C613.527 63.9515 612.234 63.9515 610.588 63.9515C610.588 58.5102 610.588 53.0689 610.588 47.5858C610.236 47.5858 609.413 47.6277 608.825 47.6277C606.828 55.4129 604.829 63.1981 602.714 70.9415C599.658 68.6812 600.128 66.421 599.541 64.2026C598.953 62.0261 597.425 59.8915 596.367 57.715C594.957 57.7568 593.429 57.7987 592.019 57.8405C590.021 60.0589 588.141 62.2354 586.143 64.4538C584.85 64.4538 583.675 64.4538 582.382 64.4119C581.324 58.6776 580.384 52.9015 579.326 47.1672C576.388 55.5384 576.74 63.8678 576.27 72.239C576.153 74.8759 574.037 77.471 572.98 80.108C571.569 56.6686 570.159 33.271 568.749 9.83163C568.631 8.70152 568.043 7.5714 567.573 6.44129C566.516 6.48314 565.458 6.48314 564.635 6.525C564.635 27.0345 564.635 47.5439 564.635 68.0953C563.812 68.0953 563.107 68.0953 562.402 68.0953C560.992 51.1436 559.699 34.1919 558.289 17.282C556.878 17.282 555.233 17.282 553.94 17.3239C553.94 45.7023 553.94 74.0388 553.94 102.417C553.588 102.836 553.47 103.254 553.94 103.715C553.353 104.426 552.765 105.138 551.12 107.105C550.062 104.594 549.592 103.464 549.122 102.375C549.239 96.683 549.474 90.9905 549.592 85.2981C549.709 76.8432 548.887 68.4301 549.709 60.017C550.649 51.4366 531.375 44.7396 532.785 36.1591C532.903 35.7824 530.317 35.322 526.321 34.0663C526.321 47.9206 526.321 60.896 526.321 73.8295C525.499 73.8295 524.206 73.8295 523.148 73.8295C521.15 57.2964 519.27 40.7633 517.389 24.2301C517.037 24.2301 516.684 24.2301 516.332 24.2301C514.334 38.3775 512.336 52.5667 510.22 66.714C509.045 66.714 507.87 66.6722 506.694 66.6722C506.694 46.5812 506.694 26.4903 506.694 6.39943C505.872 6.39943 505.166 6.39943 504.344 6.39943C502.346 19.7097 500.23 33.0199 497.997 47.5439C495.647 41.1818 493.884 36.0754 492.003 31.0108C490.593 25.5695 495.177 19.8352 483.424 13.3475C483.424 29.8388 483.424 44.8233 483.424 59.8078C482.249 59.8078 480.956 59.8078 480.133 59.7659C480.133 45.2419 480.133 30.7178 480.133 16.1938C479.311 16.1938 478.723 16.1938 478.018 16.1938C476.02 24.9417 474.022 33.6477 472.024 42.3956C471.436 42.3956 470.731 42.4375 470.143 42.4375C469.203 40.5121 468.38 38.6286 467.44 36.7032C464.385 41.14 468.615 46.2883 463.444 49.553C455.687 54.4502 457.685 59.1381 457.45 63.9097C456.863 73.2436 457.568 82.6193 457.215 91.9951C457.098 94.4227 455.335 96.8504 454.395 99.3199C454.16 92.7066 454.277 86.1352 453.454 79.522C452.632 73.0761 450.869 66.6722 449.576 60.2263C448.283 60.2682 446.991 60.2682 445.698 60.31C445.698 67.0907 445.698 73.8295 445.698 80.6102C444.875 80.6102 444.17 80.6521 443.465 80.6521C441.349 74.1644 439.116 67.6767 437.001 61.189C436.06 61.189 435.12 61.2309 434.298 61.2309C434.298 69.0998 434.298 77.0106 434.298 84.8795C433.475 84.8795 432.887 84.8795 432.182 84.8795C430.302 71.946 428.421 58.9706 426.423 46.0371C425.13 46.0371 423.72 46.0371 422.427 46.0371C422.427 52.5667 422.427 59.0543 422.427 65.5839C421.605 65.5839 420.782 65.542 419.959 65.542C419.372 64.6631 418.666 63.7841 418.079 62.9051C417.139 60.2263 416.316 57.5057 415.141 54.8269C413.965 51.9388 412.32 49.0508 410.91 46.2045C409.499 46.2464 408.089 46.2883 406.444 46.372C406.444 54.0316 406.444 61.6913 406.444 69.3928C406.091 69.3928 405.503 69.3509 405.033 69.3509C403.153 58.5521 401.272 47.7114 399.274 36.9125C395.866 52.9015 396.101 68.8487 395.749 84.754C395.749 87.0142 392.928 89.2744 391.753 91.5765C391.753 77.8896 391.753 64.2027 391.753 50.5157C390.93 50.5157 389.872 50.5157 389.05 50.5157C388.58 53.7805 388.109 57.0453 387.404 61.8168C384.936 59.1799 383.878 58.0498 382.821 56.9197C381.763 56.9197 380.705 56.9616 379.647 56.9616C377.179 68.0953 374.594 79.229 372.126 90.3627C370.833 90.4045 369.658 90.4464 368.365 90.4882C365.427 85.2562 362.606 80.0661 359.433 74.3737C358.14 75.7968 356.965 76.9269 355.084 78.9778C352.851 64.7468 350.971 51.4784 348.973 38.1682C348.033 38.1682 346.975 38.21 346.152 38.21C346.152 47.2928 346.152 56.3756 346.152 65.4583C328.641 65.2909 338.513 59.3473 331.814 56.6686C330.286 57.2964 328.053 57.7568 328.053 58.2591C327.7 72.9924 327.465 87.7676 327.348 102.501C326.878 104.761 326.408 107.021 325.82 109.323C325.115 109.282 324.41 109.282 323.704 109.24C323.352 106.98 322.882 104.761 322.529 102.501C322.529 82.6612 322.647 62.7795 322.529 42.9398C322.529 42.3119 321.354 41.6841 320.531 41.0981C320.296 40.9307 319.591 40.8051 319.003 40.7214C318.416 40.6377 317.828 40.6377 315.243 40.4703C315.243 50.3483 315.478 60.1426 315.125 69.8951C315.008 72.532 312.892 75.1271 311.599 77.7222C311.482 72.4901 312.187 67.2581 311.012 62.0261C310.424 59.4311 306.428 56.9197 303.96 54.4083C302.315 54.5339 300.434 54.7013 298.789 54.8269C298.789 62.5703 298.789 70.3136 298.789 78.057C296.791 77.3873 296.321 76.7176 295.851 76.0898C295.498 75.5875 294.675 75.1271 294.088 74.6667C293.147 74.7085 292.207 74.7085 291.267 74.7504C289.857 79.8987 288.329 85.047 286.919 90.1953C286.566 90.1953 286.213 90.1534 285.861 90.1534C283.863 80.5684 281.865 70.9415 279.984 61.3564C276.811 71.1089 277.046 80.8614 276.694 90.572C276.576 93.167 274.343 95.7621 273.05 98.3572C271.875 86.0515 270.7 73.7458 269.524 61.3983C267.644 61.3564 265.764 61.3564 263.883 61.3146C263.061 65.9187 262.12 70.4811 261.298 75.0852C250.368 74.4992 253.893 71.3182 253.776 69.1417C253.306 62.5284 253.541 55.8733 253.541 49.26C251.66 49.2182 249.897 49.2182 248.017 49.1763C246.959 54.7013 245.901 60.2263 244.844 65.7513C244.021 65.7513 243.198 65.7513 242.376 65.7513C242.376 57.4638 242.376 49.1763 242.376 40.8888C241.2 40.8888 240.143 40.8888 238.967 40.8888C236.969 55.957 234.971 71.0252 232.974 86.0515C232.738 86.0515 232.386 86.0097 232.033 86.0097C230.153 72.2809 228.272 58.5521 226.392 44.8233C224.512 44.7814 222.631 44.7814 220.868 44.7396C216.637 53.4875 221.103 62.4865 214.992 71.2763C214.992 67.1326 214.992 62.9888 214.992 58.8451C214.169 58.8451 213.346 58.8451 212.641 58.8869C211.348 67.1326 210.056 75.3782 208.763 83.6657C207 83.6239 205.237 83.6239 203.592 83.582C203.592 73.4528 203.592 63.3655 203.592 53.2364C198.303 62.5284 198.891 72.1134 188.078 80.8614C186.668 80.8195 185.257 80.7358 183.612 80.6939C183.612 76.1735 183.612 71.6112 183.612 67.0907C181.614 64.6212 178.088 62.1936 176.913 59.6403C174.798 54.8269 173.975 49.9716 172.682 45.1163C169.274 47.1254 169.391 50.6413 167.393 50.8087C152.232 52.0225 158.579 55.9151 158.109 58.9706C156.228 59.1799 152.82 59.5985 152.702 59.5148C150.234 57.2545 146.591 54.9943 146.238 52.6504C145.298 46.9998 145.886 41.3074 145.886 35.6568C142.478 36.5358 142.125 37.4148 142.007 38.2937C141.772 44.2373 146.356 50.8924 140.245 55.9151C128.962 65.2072 131.077 74.5411 130.137 84.0006C130.02 85.8422 128.609 87.6839 127.787 89.4837C126.024 89.4419 124.613 89.4 122.498 89.3581C122.498 80.5684 122.498 71.8205 122.498 63.0307C121.675 63.0307 120.5 63.0307 119.207 63.0725C119.207 76.2572 119.207 89.4418 119.207 102.627C117.562 102.627 115.916 102.627 114.271 102.627C114.271 98.0223 114.271 93.3763 114.271 87.2235C111.45 89.4 110.628 90.0278 108.63 91.4509C106.044 86.0097 103.929 81.2799 101.696 76.5502C100.638 76.592 99.4627 76.592 98.64 76.6339C98.64 81.1544 98.64 85.6748 98.64 90.1953C95.3492 84.7121 96.0544 79.2708 95.3492 73.8295C94.6441 68.7231 98.64 63.3237 92.411 58.4684C90.8832 58.5102 89.3553 58.5521 87.71 58.5939C87.71 63.7422 87.71 68.8905 87.71 74.0388C87.3574 74.0388 86.2996 74.0388 85.5944 74.0388C81.8335 64.9561 78.0727 55.9152 74.1943 46.8324C73.4892 46.8324 73.019 46.8742 72.1964 46.8742C72.1964 55.4547 72.1964 64.0771 72.1964 72.6576C68.553 68.6394 69.3757 64.6212 68.553 60.603C67.8478 56.7941 65.4973 52.9852 63.4993 48.2136C55.3899 57.9661 70.5509 67.7604 51.159 76.4246C49.8662 74.5411 48.926 73.2017 48.1033 72.0716C34.2351 78.0151 38.231 84.9633 37.7609 91.7021C37.5259 95.3436 37.6434 98.985 37.5258 102.668C36.3506 102.71 35.2928 102.668 34.2351 102.585C30.7093 95.0506 27.1834 87.5165 23.7751 79.9824C22.2473 79.9824 20.7194 79.9824 19.0741 80.0242C19.0741 86.1771 19.0741 92.3299 19.0741 98.4409C17.4287 98.4409 15.7833 98.399 14.1379 98.399C14.1379 87.0979 14.1379 75.7549 14.1379 64.4538C13.3152 64.4538 12.7276 64.4538 12.0224 64.4538C9.08425 68.9742 6.14607 73.4947 3.20789 78.0151C3.09036 76.6339 4.38315 74.7922 2.38518 73.997C-7.01699 70.3555 -3.25609 65.9606 -4.78394 61.8587C-6.07674 58.3847 -10.1902 55.0362 -12.0706 51.5621C-13.1284 49.4693 -12.3057 47.2509 -12.3057 45.0744C-13.716 45.0326 -15.2439 44.9907 -16.6542 44.9489C-17.712 47.5439 -19.5924 50.0972 -19.7099 52.6922C-20.18 61.8169 -20.0625 70.9415 -20.2975 80.0242C-20.2975 80.2754 -21.5903 80.5265 -21.5903 80.5684C-24.5285 79.3127 -27.3492 78.0151 -32.4028 75.7968C-35.8111 81.3218 -38.1617 85.2562 -40.8648 89.693C-43.0978 84.0006 -45.0958 78.8523 -47.0937 73.704C-48.3865 73.7458 -49.4443 73.7877 -51.0897 73.7877C-51.0897 78.4337 -51.0897 83.1216 -51.0897 87.7676C-52.265 87.7676 -53.5577 87.7676 -54.733 87.7676C-54.733 83.1634 -54.733 78.5174 -54.733 73.9133C-55.0856 73.9133 -55.9083 73.9133 -56.4959 73.9551C-58.1413 77.6384 -59.7867 81.3636 -61.4321 85.047C-63.195 84.9633 -64.9579 84.9214 -66.4857 84.8377C-66.4857 80.7776 -66.4857 76.7176 -66.4857 72.6576C-67.3084 72.6576 -68.0136 72.6994 -68.8363 72.6994C-69.4239 75.4201 -70.0115 78.0989 -70.5992 80.8195C-71.7744 80.8195 -73.0672 80.7776 -73.8899 80.7776C-73.8899 76.2153 -73.8899 71.653 -73.8899 67.0907C-75.0652 67.0907 -75.6528 67.0907 -76.4755 67.1326C-77.0632 70.3555 -77.6508 73.5784 -78.2384 76.8432C-81.4117 71.4437 -82.822 66.0443 -85.4076 60.7286C-85.8777 59.7241 -90.8139 58.9706 -93.752 58.0917C-95.5149 59.0544 -97.2778 60.0589 -99.1583 61.0634C-101.626 59.3473 -103.977 57.715 -106.327 56.0407C-107.15 56.1244 -108.09 56.1663 -108.913 56.25C-108.913 63.0725 -108.913 69.8951 -108.913 76.7176C-109.736 76.7176 -110.441 76.7176 -111.146 76.6758C-111.734 74.7922 -112.321 72.8669 -112.909 70.9833C-123.604 81.4473 -118.55 92.1625 -119.255 102.794C-119.726 103.212 -119.608 103.673 -119.255 104.091C-119.608 107.231 -119.961 110.412 -120.431 113.551C-121.724 109.951 -122.899 106.352 -124.192 102.752C-124.192 91.0742 -124.192 79.3964 -124.192 67.7604C-126.19 67.7186 -128.07 67.6767 -129.95 67.6348C-130.656 72.5739 -131.361 77.5129 -132.183 82.4519C-132.771 82.4519 -133.241 82.41 -133.829 82.41C-134.769 81.2799 -135.709 80.1498 -137.002 78.6011C-138.53 80.2335 -139.588 81.3636 -140.763 82.4937C-141.586 82.4519 -142.526 82.41 -143.349 82.3682C-143.349 72.7413 -143.349 63.0725 -143.349 53.4456C-144.524 53.4038 -145.464 53.3201 -146.639 53.2782C-151.928 58.8869 -157.099 64.4538 -162.388 70.0625C-175.081 60.9379 -166.384 50.725 -171.32 40.6795C-173.788 43.5676 -175.904 45.9953 -178.019 48.4229C-179.194 48.3392 -180.487 48.2973 -181.78 48.2136C-181.78 41.2655 -181.78 34.3174 -181.78 27.3693C-183.425 27.3275 -184.836 27.2856 -186.363 27.2856C-187.304 30.09 -189.067 32.8525 -189.067 35.6568C-189.302 50.4739 -189.184 65.3328 -189.184 80.1498C-189.184 82.2008 -189.184 84.2517 -189.184 86.3026C-190.359 86.3026 -192.005 86.2608 -193.65 86.2608C-193.65 73.0343 -193.65 59.7659 -193.65 46.5394C-194.003 46.5394 -194.825 46.5394 -195.413 46.5394C-197.176 59.9333 -199.056 73.3273 -200.937 87.2653C-219.154 83.8331 -208.106 78.057 -214.335 73.997C-216.803 76.5083 -219.036 78.7686 -221.269 81.0288C-222.327 80.9869 -223.149 80.9451 -224.442 80.9032C-224.442 73.118 -224.442 65.3328 -224.442 57.5475C-225.265 57.5057 -226.088 57.5057 -226.91 57.4638C-230.789 60.2263 -234.55 62.9888 -239.956 66.8396C-239.956 62.068 -239.956 58.4684 -239.956 54.8269C-257.115 55.4966 -246.42 49.553 -251.709 48.1299C-255.352 48.2973 -259.7 48.5485 -259.7 48.4648C-260.876 46.4975 -262.051 44.4884 -262.168 42.4794C-262.521 37.4985 -262.286 32.5176 -262.286 27.5367C-263.109 27.5367 -263.931 27.5786 -264.754 27.5786C-266.87 34.9034 -268.868 42.2282 -271.101 50.1809C-273.451 48.8833 -274.509 48.2136 -277.094 46.8324C-279.092 61.9424 -281.09 76.1316 -282.971 90.3208C-283.676 90.3208 -284.264 90.279 -284.969 90.279C-285.321 87.6002 -285.674 84.9633 -286.026 82.2845C-286.849 82.2845 -287.554 82.2845 -288.377 82.2426C-288.965 85.9678 -289.435 89.6511 -290.022 93.3763C-290.845 93.3763 -291.55 93.3763 -292.373 93.3763C-292.961 90.1115 -293.548 86.8049 -294.018 83.5401C-295.076 83.5401 -295.899 83.5401 -297.074 83.5401C-297.074 88.1025 -297.074 92.6648 -297.074 97.2271C-298.249 97.2271 -299.895 97.2271 -301.187 97.2271C-301.187 86.8468 -301.187 76.5083 -301.187 66.128C-302.01 66.128 -302.715 66.1699 -303.421 66.1699C-305.536 74.2481 -307.652 82.3263 -309.649 90.4045C-310.12 90.3627 -310.59 90.3627 -311.06 90.3208C-318.464 70.774 -325.868 51.2273 -333.272 31.6386C-334.095 31.6386 -335.035 31.6386 -335.858 31.6386C-335.858 50.3064 -335.858 69.0161 -335.858 87.6839C-338.679 86.8049 -339.266 85.9259 -339.266 85.047C-340.559 61.3564 -341.852 37.6659 -343.145 13.9754C-343.262 12.5523 -343.85 11.171 -344.202 9.74792C-346.906 15.4822 -346.671 21.1328 -346.906 26.7833C-347.023 28.2902 -347.846 31.0945 -349.139 31.1364C-362.772 31.6805 -358.188 35.2801 -358.188 37.7915C-358.541 53.0689 -358.306 68.3883 -358.423 83.6657C-358.423 85.3818 -359.011 87.0979 -359.246 88.8559C-362.184 86.5119 -361.949 84.2517 -362.302 81.9915C-362.654 79.815 -363.477 77.6384 -364.182 75.4201C-365.945 75.5038 -367.59 75.5456 -369.236 75.5875C-369.236 80.5265 -369.236 85.4655 -369.236 91.7021C-390.861 82.2008 -376.17 71.9879 -384.749 63.0307C-384.749 76.2153 -384.749 89.4418 -384.749 102.627C-385.102 105.431 -385.572 108.235 -386.042 111.04C-386.865 111.04 -387.57 111.04 -388.393 111.04C-388.863 108.235 -389.215 105.431 -389.685 102.627C-389.568 95.0924 -387.57 87.5583 -390.978 80.1498C-392.624 80.1498 -394.151 80.1917 -395.797 80.1917C-396.502 81.824 -397.207 83.4564 -397.795 85.0888C-398.853 85.047 -399.91 85.047 -401.086 85.0051C-401.086 72.1134 -401.086 59.2218 -401.086 46.3301C-402.261 46.3301 -403.084 46.3301 -404.376 46.3301C-404.376 50.0972 -404.376 53.9061 -404.376 57.6731C-405.199 57.6731 -405.904 57.6731 -406.492 57.6731C-408.372 53.5294 -410.253 49.3437 -412.251 45.2C-413.543 45.2419 -414.954 45.2837 -416.247 45.3674C-416.247 50.7669 -416.247 56.2081 -416.247 61.6076C-417.069 61.6076 -417.774 61.6076 -418.48 61.6076C-420.478 47.0835 -422.593 32.5176 -424.709 17.9936C-425.766 17.9936 -426.824 18.0354 -428.117 18.0354C-428.117 33.4803 -428.117 48.9252 -428.117 64.3701C-435.051 56.7941 -425.884 48.5485 -438.107 41.2655C-439.282 53.8223 -439.047 66.3792 -439.399 78.8941C-439.517 81.2799 -441.632 83.6657 -442.808 86.0515C-443.513 84.2936 -444.101 82.4937 -444.806 80.7358C-457.499 88.3536 -453.973 96.3062 -454.208 104.05C-455.853 103.589 -457.381 103.087 -459.026 102.627C-459.026 87.1816 -459.026 71.7367 -459.026 56.2919C-459.849 56.2919 -461.142 56.2919 -462.2 56.2919C-464.08 62.6121 -465.843 68.9742 -467.606 75.2945C-468.076 75.2945 -468.546 75.2945 -468.899 75.2945C-469.604 72.532 -470.309 69.8114 -470.897 67.0489C-471.602 67.0489 -472.19 67.0907 -472.895 67.0907C-473.365 70.3555 -473.835 73.6621 -474.305 76.9269C-475.245 77.0943 -476.303 77.2617 -477.243 77.4292C-478.536 76.1735 -479.829 74.9178 -481.122 73.704C-482.649 74.0388 -484.295 74.4155 -485.47 74.7504C-485.47 78.0989 -485.47 81.4473 -485.47 84.7958C-486.645 84.7958 -487.586 84.8377 -488.643 84.8377C-491.699 68.5138 -494.872 52.1481 -497.928 35.8242C-498.868 35.8242 -500.043 35.8661 -500.866 35.8661C-500.866 47.2091 -500.866 58.5521 -500.866 69.8532C-501.689 69.8532 -502.512 69.8532 -503.687 69.8532C-503.687 65.1653 -503.687 60.5193 -503.687 56.6686C-510.268 55.1617 -514.264 54.1572 -519.553 52.9434C-519.553 64.0771 -519.553 75.0015 -519.553 85.9678C-522.844 79.1871 -525.899 72.3646 -529.19 65.1235C-534.596 70.8159 -526.017 76.9687 -539.062 81.824C-539.062 69.1417 -539.062 56.4593 -539.062 43.7769C-542.353 47.0417 -539.18 51.604 -543.999 53.3619C-553.401 56.7941 -552.931 60.4775 -553.283 64.3701C-553.283 70.0206 -553.283 75.6712 -553.283 81.5311C-574.086 79.9824 -560.57 74.0388 -568.327 70.4811C-569.032 74.2062 -569.737 77.5129 -570.442 80.7776C-571.853 80.7776 -573.145 80.7358 -574.556 80.7358C-575.849 66.0443 -577.141 51.3528 -578.199 38.796C-584.898 54.7432 -592.537 72.6994 -600.177 90.6557C-601.117 90.6138 -602.057 90.572 -602.997 90.572C-603.937 88.1025 -604.76 85.5911 -605.7 83.1216C-607.463 83.1216 -609.226 83.1216 -610.989 83.0797C-611.459 90.0697 -611.929 97.0597 -612.399 104.091C-613.34 104.05 -614.162 104.008 -615.103 103.966C-615.573 103.547 -615.925 103.129 -616.395 102.668C-616.748 96.097 -613.222 89.4 -618.511 82.9542C-620.156 82.9542 -621.802 82.996 -623.329 82.996C-623.329 88.228 -623.329 93.46 -623.329 98.6502C-624.505 98.6502 -625.798 98.6083 -626.973 98.6083C-626.973 94.7994 -626.973 90.9905 -626.973 86.7212C-632.732 87.4746 -636.257 87.9769 -640.606 88.5629C-642.251 85.7167 -643.779 83.289 -645.19 80.8614C-646.6 80.9032 -648.01 80.9451 -649.303 80.9869C-650.008 84.9633 -650.713 88.9814 -651.654 94.2553C-658.118 87.642 -648.715 81.5311 -662.936 76.7595C-662.936 79.8987 -662.936 83.0379 -662.936 86.1352C-663.759 86.1352 -664.464 86.0934 -665.287 86.0934C-665.757 83.7076 -666.109 81.3218 -666.579 78.936C-667.755 78.8941 -668.812 78.8523 -669.988 78.8104C-673.161 84.461 -676.217 90.0697 -679.39 95.8458C-683.151 95.3017 -686.324 94.8413 -690.438 94.2553C-691.848 96.2225 -692.906 97.8131 -694.081 99.4036C-694.904 98.9432 -695.844 98.4409 -696.666 97.9805C-700.075 98.399 -703.483 98.7758 -705.128 98.985C-708.889 97.3526 -711.71 94.9668 -715.588 94.6739C-722.287 94.1716 -724.05 89.107 -733.805 92.2462C-738.976 86.4701 -747.321 90.4883 -751.669 91.9951C-764.127 96.3481 -775.057 99.3617 -784.929 99.9896C-788.69 98.6083 -792.451 97.1852 -797.152 95.4273C-799.268 96.7667 -800.678 97.6456 -802.206 98.5665C-815.839 96.0551 -819.6 96.2644 -835.113 98.1479C-844.986 99.3199 -855.916 100.45 -865.906 100.115C-888.588 99.3617 -910.918 99.7803 -933.366 100.827C-939.595 101.12 -946.177 101.036 -952.406 100.701C-965.451 99.9896 -978.262 98.5246 -991.542 100.869C-994.48 101.413 -999.887 100.283 -1004 99.9059C-1004 100.827 -1004 101.748 -1004 102.627C-1004 103.087 -1004 103.547 -1004 104.008C-1004 104.468 -1004 104.929 -1004 105.389C-985.196 107.524 -966.744 107.607 -947.587 105.808C-939.243 105.012 -929.84 105.431 -921.026 105.682C-917.03 105.808 -911.389 106.394 -909.626 107.44C-905.042 110.202 -898.813 109.282 -892.937 108.905C-878.011 107.9 -863.085 106.728 -848.159 105.682C-839.932 105.096 -833.586 105.64 -829.472 108.821C-827.827 110.077 -818.895 111.626 -817.484 111.207C-806.672 108.026 -793.156 112.212 -782.344 109.282C-780.933 108.905 -775.527 110.37 -774.234 110.621C-768.123 108.654 -762.952 106.98 -755.077 104.426C-750.376 109.282 -746.968 112.881 -743.325 116.648C-742.737 115.016 -742.267 113.384 -741.209 110.537C-739.211 112.839 -738.271 113.844 -737.096 115.267C-732.042 115.1 -724.99 110.956 -721.347 117.444C-719.819 114.304 -719.114 112.923 -718.409 111.5C-717.469 111.291 -716.411 111.04 -715.471 110.83C-715.236 111.751 -715.001 112.672 -714.883 113.593C-713.825 113.342 -713.003 113.091 -711.827 112.839C-711.827 111.709 -711.827 110.579 -711.827 109.491C-709.829 112.379 -707.714 115.267 -704.658 119.704C-701.838 116.23 -700.192 114.137 -697.372 110.663C-696.549 114.89 -696.079 117.611 -695.609 119.955C-687.969 116.774 -680.565 113.76 -672.103 110.244C-669.283 114.346 -666.815 118.113 -664.111 121.922C-663.289 121.88 -662.349 121.838 -661.526 121.755C-661.526 115.895 -661.526 109.993 -661.526 104.133H-659.88L-658.235 104.175C-656.12 110.077 -662.466 116.397 -649.773 121.922C-649.773 118.155 -649.773 114.43 -649.773 110.663C-649.421 110.663 -648.833 110.663 -648.245 110.663C-646.247 116.23 -644.367 121.838 -642.251 127.866C-638.138 123.094 -634.73 119.118 -631.204 115.141C-629.323 120.625 -627.443 126.108 -625.562 131.549C-624.74 131.549 -623.917 131.549 -623.094 131.549C-623.094 126.903 -623.094 122.257 -623.094 117.611C-622.272 117.611 -621.567 117.611 -620.744 117.569C-618.628 122.592 -616.513 127.615 -614.28 132.637C-611.929 128.368 -612.399 124.182 -611.812 119.955C-611.224 116.481 -609.344 113.007 -608.051 109.533C-605.935 114.848 -614.162 120.918 -598.061 125.312C-595.711 122.341 -593.36 119.369 -591.01 116.439C-589.952 116.481 -588.894 116.565 -588.071 116.606C-588.071 123.513 -588.071 130.419 -588.071 137.283C-576.201 132.009 -584.663 125.857 -578.904 119.662C-576.671 128.535 -574.438 136.739 -572.323 144.943C-571.147 144.901 -569.972 144.901 -568.797 144.859C-568.797 140.339 -568.797 135.86 -568.797 131.34C-567.622 131.34 -566.329 131.34 -565.154 131.382C-565.154 137.367 -565.154 143.352 -565.154 149.338C-563.978 149.338 -562.685 149.338 -561.51 149.338C-561.51 142.432 -561.51 135.525 -561.51 128.619C-560.687 128.619 -559.512 128.619 -558.572 128.619C-558.102 131.005 -557.749 133.391 -557.279 135.777C-554.106 133.14 -554.576 130.503 -553.988 127.908C-553.166 124.141 -551.755 120.373 -550.463 116.606C-550.463 126.568 -550.463 136.53 -550.463 146.492C-548.817 146.492 -547.054 146.492 -545.291 146.492C-544.469 131.884 -543.764 117.276 -542.941 102.71C-542.471 101.245 -542.001 99.7803 -541.531 98.3153C-540.825 98.3153 -540.12 98.3153 -539.415 98.3153C-539.063 99.7384 -538.71 101.162 -538.24 102.585C-537.417 116.816 -542.353 131.13 -532.128 145.236C-530.953 143.018 -530.953 140.799 -530.953 138.581C-530.953 128.117 -531.071 117.611 -530.836 107.147C-530.836 105.18 -529.778 103.171 -529.19 101.203C-528.485 101.496 -527.662 101.748 -527.075 102.041C-526.722 102.208 -526.722 102.459 -526.487 102.668C-525.547 109.993 -524.489 117.36 -523.549 124.685C-522.609 124.685 -521.668 124.685 -520.728 124.685C-518.495 119.202 -516.38 113.677 -514.147 108.193C-512.971 108.235 -512.031 108.277 -510.738 108.277C-510.738 117.737 -510.738 127.238 -510.738 137.367C-506.272 131.549 -502.276 126.568 -498.751 122.09C-492.639 129.247 -486.293 136.739 -480.064 144.231C-475.363 141.72 -473.6 139.334 -473.482 136.907C-473.012 131.214 -473.6 125.48 -473.13 119.787C-472.777 116.481 -470.897 113.174 -469.721 109.826C-469.721 125.647 -469.721 141.469 -469.721 157.332C-468.899 157.332 -467.723 157.332 -466.783 157.332C-464.785 146.366 -462.787 135.4 -460.672 124.434C-459.732 124.434 -458.674 124.434 -457.851 124.434C-457.851 131.716 -457.851 139.041 -457.851 146.324C-456.206 146.324 -455.031 146.324 -453.62 146.324C-452.445 136.404 -451.27 126.484 -450.094 116.565C-446.921 121.964 -443.748 127.405 -440.34 133.223C-438.577 122.676 -436.931 112.63 -435.168 102.585C-434.698 100.366 -434.228 98.1061 -433.758 95.8877C-433.053 95.9295 -432.23 95.9295 -431.525 95.9714C-431.173 98.1898 -430.82 100.45 -430.35 102.668C-430.35 119.16 -430.35 135.609 -430.35 152.1C-425.061 143.352 -428.352 134.479 -420.36 125.647C-413.896 118.532 -416.247 110.454 -414.601 102.794L-413.543 102.836H-412.486C-412.251 110.119 -412.251 117.402 -411.428 124.685C-411.193 126.568 -409.548 129.749 -406.727 130.042C-398.147 130.963 -400.38 133.014 -400.263 134.856C-400.028 139.669 -400.145 144.441 -400.145 149.254C-399.205 149.212 -398.265 149.212 -397.325 149.17C-396.502 148.208 -395.797 147.245 -394.974 146.324C-393.681 146.366 -392.271 146.408 -391.096 146.45C-391.096 158.421 -391.096 170.35 -391.096 182.32C-389.098 182.32 -386.982 182.32 -385.337 182.32C-385.337 165.452 -385.337 148.584 -385.337 131.716C-383.692 131.716 -382.046 131.758 -380.401 131.758C-380.401 145.362 -380.401 158.965 -380.401 172.61C-379.578 172.652 -378.638 172.652 -377.815 172.694C-374.172 163.946 -370.529 155.198 -366.885 146.575C-365.945 147.078 -364.887 147.789 -361.596 149.673C-359.481 142.808 -357.836 137.116 -356.073 131.465C-355.603 131.465 -355.132 131.465 -354.662 131.465C-354.192 135.191 -353.605 138.916 -353.135 142.641C-342.557 129.456 -347.141 116.104 -346.553 102.794C-346.083 99.9896 -345.73 97.1852 -345.26 94.3809C-344.437 94.3809 -343.732 94.3809 -342.91 94.3809C-342.557 97.1852 -342.087 100.031 -341.734 102.836C-341.147 115.686 -340.442 128.494 -339.971 141.343C-338.091 141.343 -336.328 141.343 -334.213 141.343C-334.213 131.214 -334.213 121.043 -334.213 110.872C-333.037 110.872 -331.745 110.872 -330.569 110.872C-330.569 122.801 -330.569 134.688 -330.569 146.534C-328.924 146.534 -327.631 146.575 -326.221 146.575C-324.693 139.711 -323.283 132.847 -321.637 125.982C-320.815 125.982 -319.992 125.982 -319.169 125.982C-319.169 136.446 -319.169 146.952 -319.169 157.416C-317.994 157.416 -317.406 157.416 -316.466 157.416C-315.643 155.156 -314.821 152.937 -313.998 150.677C-312.94 150.719 -311.765 150.719 -310.59 150.761C-310.59 157.039 -310.59 163.318 -310.59 169.596C-310.237 169.554 -309.649 169.554 -309.179 169.512C-307.416 165.452 -305.654 161.392 -303.891 157.332C-302.363 157.374 -300.835 157.416 -299.542 157.458C-299.542 161.518 -299.542 165.62 -299.542 169.68C-297.897 169.68 -296.721 169.68 -295.429 169.638C-295.429 163.695 -295.429 157.709 -295.429 150.342C-292.608 152.561 -291.55 153.314 -290.257 154.235C-288.73 153.105 -287.554 152.142 -286.262 151.096C-284.969 152.268 -283.911 153.23 -282.853 154.193C-281.443 154.151 -280.033 154.109 -278.505 154.068C-274.626 139.92 -278.27 125.689 -276.507 111.542C-275.332 113.928 -273.334 116.355 -273.216 118.741C-272.863 128.954 -273.098 139.167 -273.098 149.38C-259.7 136.739 -268.868 123.555 -263.579 109.323C-257.467 120.708 -267.34 131.172 -254.294 140.883C-254.294 128.159 -254.294 115.434 -254.294 102.752C-254.294 97.3108 -254.294 91.8695 -254.294 86.4282C-252.649 86.4282 -251.003 86.4282 -249.358 86.4701C-249.358 91.9114 -249.358 97.3526 -249.358 102.794C-249.358 117.318 -249.358 131.884 -249.358 146.408C-248.183 146.408 -246.537 146.408 -245.127 146.45C-243.482 138.874 -241.836 131.34 -240.308 123.764C-230.789 129.54 -240.426 136.153 -226.558 142.976C-226.558 134.981 -226.558 128.494 -226.558 122.006C-223.267 127.447 -223.62 132.888 -222.797 138.288C-221.857 143.478 -227.38 149.003 -215.628 153.775C-215.628 148.584 -215.628 143.436 -215.628 138.246C-204.228 148.919 -203.522 160.053 -203.757 171.187C-202.347 171.187 -200.937 171.145 -199.762 171.145C-199.762 164.322 -199.762 157.5 -199.762 149.505C-196.471 151.807 -194.825 152.812 -191.77 154.821C-190.124 152.854 -188.949 152.059 -188.949 151.221C-187.656 135.065 -186.363 118.95 -185.188 102.794C-183.66 103.254 -182.132 103.673 -180.487 104.133C-179.782 118.323 -185.071 132.637 -173.2 146.701C-173.2 136.614 -173.2 126.526 -173.2 116.439C-172.025 116.439 -170.732 116.439 -169.557 116.439C-169.557 130.67 -169.557 144.859 -169.557 159.09C-167.912 159.09 -166.031 159.132 -164.268 159.132C-162.505 143.938 -160.625 128.787 -158.862 113.593C-157.217 113.593 -155.689 113.635 -153.691 113.635C-153.691 125.103 -153.691 136.572 -153.691 148.04C-153.338 148.04 -152.516 148.04 -151.928 148.04C-150.4 146.115 -148.872 144.19 -147.344 142.264C-145.934 142.306 -144.641 142.39 -143.113 142.432C-143.113 149.338 -143.113 156.202 -143.113 163.109C-141.938 163.109 -140.293 163.109 -138.647 163.109C-138.647 153.44 -138.647 143.813 -138.647 134.144C-137.825 134.144 -136.649 134.144 -135.592 134.102C-135.122 136.488 -134.652 138.832 -134.181 141.218C-133.124 141.218 -132.183 141.218 -131.008 141.218C-131.008 137.032 -131.008 132.847 -131.008 128.661C-129.833 128.661 -128.54 128.661 -127.365 128.703C-127.365 143.729 -127.365 158.797 -127.365 173.824C-125.719 173.824 -124.074 173.824 -122.546 173.824C-121.606 160.262 -120.783 146.659 -119.608 133.098C-119.373 130.461 -117.61 127.782 -116.317 125.145C-116.317 134.144 -116.317 143.143 -116.317 152.142C-115.495 152.142 -114.319 152.142 -113.262 152.142C-109.383 144.315 -105.505 136.53 -101.391 128.117C-100.686 132.763 -99.981 136.907 -99.3933 141.092C-98.218 141.092 -97.0428 141.05 -95.8675 141.05C-95.8675 131.926 -95.8675 122.801 -95.8675 113.677C-95.0448 113.677 -93.8696 113.677 -92.5768 113.677C-92.5768 128.787 -92.5768 143.897 -92.5768 159.007C-91.7541 159.048 -90.5788 159.048 -89.5211 159.09C-86.4654 152.142 -83.5272 145.152 -80.4715 138.204C-79.5313 138.246 -78.7086 138.288 -77.7684 138.372C-77.2983 139.711 -76.9457 141.092 -76.5931 142.432C-75.3003 146.157 -74.125 149.84 -72.8322 153.565C-71.6569 153.523 -70.4817 153.523 -69.3064 153.482C-69.3064 146.199 -69.3064 138.958 -69.3064 131.675C-62.3723 146.659 -71.3043 161.895 -57.9062 176.712C-57.9062 171.187 -57.9062 165.62 -57.9062 159.132C-54.6155 160.765 -53.5578 161.392 -50.502 162.983C-50.502 152.352 -50.7371 142.85 -50.267 133.349C-50.1494 130.963 -47.9165 128.619 -46.6237 126.233C-44.6257 138.246 -53.4402 150.761 -31.1101 162.899C-24.411 146.324 -18.2996 130.796 -12.1881 115.937C-12.1881 126.15 -12.1881 137.116 -12.1881 148.124C-11.3655 148.124 -10.8954 148.124 -10.1902 148.124C-8.19228 143.52 -6.19431 138.916 -4.31388 134.312C5.67593 135.986 2.62022 139.251 3.32539 142.097C4.14808 145.487 5.20585 148.877 6.14607 152.268C8.0265 152.226 9.7894 152.184 11.7874 152.142C11.7874 141.762 11.7874 131.382 11.7874 121.001C12.9626 121.001 14.2555 121.043 15.4307 121.043C15.4307 136.823 15.4307 152.603 15.4307 168.424C19.8968 164.49 21.1895 160.513 22.5999 156.537C23.07 155.03 23.6576 153.482 24.2453 151.975C24.9504 152.268 25.7731 152.519 26.3608 152.812C26.7133 152.979 26.8309 153.23 26.9484 153.44C29.4165 159.927 31.8845 166.415 34.4701 172.903C35.4103 172.861 36.3506 172.861 37.2908 172.819C37.7609 170.852 38.1134 168.927 38.5835 166.959C39.1712 166.959 39.6413 166.959 40.2289 166.959C41.4042 168.801 42.697 170.601 43.8723 172.442C45.4001 172.442 46.928 172.401 48.5734 172.401C48.5734 159.3 48.5734 146.241 48.5734 133.14C49.7486 133.14 50.8064 133.14 51.9817 133.14C53.9796 147.245 55.9776 161.351 57.9755 175.498C59.0333 175.498 60.4437 175.498 61.2663 175.498C61.2663 156.788 61.2663 138.037 61.2663 119.327C66.5551 127.489 62.4416 135.86 68.553 143.938C78.1902 132.637 63.2643 120.373 84.0666 108.361C84.0666 122.006 84.0666 134.437 84.0666 146.868C85.2418 146.868 86.5347 146.868 87.71 146.868C87.71 143.562 87.71 140.255 87.71 136.907C88.5326 136.907 89.1203 136.865 89.8254 136.865C92.0584 139.795 94.409 142.725 96.642 145.655C97.3472 145.613 98.0523 145.571 98.875 145.529C99.3451 141.887 99.8152 138.288 100.403 134.646C102.166 134.646 103.811 134.646 105.574 134.646C107.807 144.65 109.923 154.612 112.156 164.615C112.978 164.615 113.919 164.615 114.741 164.615C114.741 159.467 114.741 154.319 114.741 149.17C116.739 149.129 118.502 149.045 120.382 149.003C121.558 154.151 122.851 159.341 124.026 164.49C124.731 164.448 125.436 164.448 126.141 164.406C128.139 154.821 130.02 145.236 132.018 135.609C132.253 135.609 132.488 135.609 132.723 135.609C134.251 142.473 135.779 149.338 137.306 156.16C139.187 156.119 140.95 156.077 143.065 156.035C143.065 147.915 143.065 139.795 143.065 131.675C143.888 131.675 145.063 131.716 146.356 131.716C146.356 137.744 146.356 143.813 146.356 149.84C148.001 149.882 149.529 149.924 151.175 150.008C153.408 141.553 155.758 133.056 157.991 124.601C158.814 124.601 159.637 124.643 160.342 124.643C162.34 134.688 164.455 144.692 166.453 154.737C167.041 154.737 167.511 154.737 168.334 154.695C168.334 137.409 168.334 120.122 168.334 102.836C168.334 99.6129 168.334 96.39 168.334 93.2089C169.979 96.4318 171.507 99.6547 173.152 102.878C173.152 108.821 172.682 114.723 173.035 120.666C173.387 126.568 171.154 132.554 175.033 138.874C180.086 137.451 183.024 136.697 188.666 135.065C188.666 148.459 188.666 160.513 188.666 172.61C189.841 172.61 191.134 172.61 192.309 172.61C192.309 165.829 192.309 159.048 192.309 152.226C193.484 152.226 194.542 152.184 195.717 152.184C199.008 158.211 202.299 164.197 205.59 170.224C214.404 161.351 210.173 152.268 210.996 143.311C211.701 134.395 211.113 125.48 211.113 116.565C212.406 116.565 213.699 116.565 214.992 116.565C214.992 127.908 214.757 139.251 215.109 150.635C215.227 153.063 217.225 155.491 218.283 157.918C219.81 157.835 221.338 157.793 222.866 157.709C222.866 149.003 222.866 140.297 222.866 131.591C229.8 145.278 229.8 145.278 237.91 148.417C237.91 133.433 237.91 118.867 237.91 104.301L239.79 104.217L241.671 104.259C241.671 122.508 241.671 140.757 241.671 159.048C243.669 159.09 245.902 159.09 248.017 159.132C251.425 146.45 248.017 133.558 250.25 120.834C251.543 120.834 252.718 120.876 254.363 120.876C254.363 126.317 254.363 131.758 254.363 137.2C255.186 137.2 256.361 137.158 257.184 137.116C257.184 135.316 257.184 133.558 257.184 131.758C267.762 131.256 264.236 134.144 264.706 135.818C266.704 143.101 268.349 150.426 270.23 158.379C272.58 154.988 274.461 152.268 276.224 149.505C279.632 156.202 283.04 162.941 286.096 168.927C289.151 162.774 292.442 156.035 295.733 149.296C297.026 147.287 299.141 145.236 299.376 143.227C299.964 139.292 299.611 135.358 299.611 131.423C300.904 131.423 302.079 131.423 303.725 131.423C303.725 136.111 303.725 140.799 303.725 145.487C304.077 145.487 304.783 145.445 305.37 145.445C307.251 140.841 309.014 136.279 311.012 131.675C311.012 145.696 311.012 159.76 311.012 173.782C312.187 173.782 313.832 173.782 315.36 173.782C317.005 160.22 318.533 146.659 320.179 133.098C321.236 133.098 322.059 133.098 323.352 133.098C323.352 144.357 323.352 155.616 323.352 166.876C323.705 166.876 324.527 166.834 325.115 166.834C326.408 160.388 327.818 153.984 329.111 147.58C330.286 147.58 331.461 147.58 332.637 147.58C333.694 149.045 334.635 150.51 335.105 151.096C338.16 147.58 341.569 143.645 345.094 139.711C345.682 137.409 346.27 135.065 346.857 132.763C351.206 143.98 354.379 155.156 357.67 166.29C357.787 166.583 358.728 166.834 359.903 167.42C360.726 165.118 361.431 163.276 362.018 161.392C363.076 161.434 364.134 161.434 365.309 161.476C365.309 173.405 365.309 185.334 365.309 197.221C368.6 194.542 368.365 191.822 368.6 189.143C369.775 177.13 370.48 165.076 372.596 153.063C373.889 145.864 377.532 138.706 380.117 131.549C382.115 138.413 383.996 145.278 385.994 152.184C386.581 152.184 387.287 152.226 387.639 152.226C387.639 148.04 387.639 143.855 387.639 139.669C389.285 139.669 390.46 139.669 392.105 139.627C392.105 146.91 392.105 154.235 392.105 161.518C393.281 161.518 394.573 161.476 395.749 161.476C395.749 151.054 395.749 140.632 395.749 130.252C402.683 137.367 394.103 145.194 406.326 153.272C406.326 135.609 406.326 119.202 406.326 102.836C406.326 98.7339 406.326 94.6739 406.326 90.572C407.971 90.572 409.617 90.6138 411.262 90.6138C411.262 94.6739 411.262 98.7339 411.262 102.794C411.262 118.783 411.262 134.772 411.262 150.761C412.085 150.761 412.79 150.761 413.495 150.803C414.318 149.296 415.258 147.747 416.551 145.445C418.314 147.454 419.254 148.501 420.194 149.505C421.252 149.422 422.31 149.338 423.485 149.254C423.485 141.636 423.485 133.977 423.485 126.359C423.838 126.359 424.425 126.401 424.895 126.401C426.893 137.283 428.891 148.166 430.889 159.048C431.594 159.007 432.182 159.007 432.887 158.965C433.71 157.96 434.533 156.956 435.355 155.993C436.295 155.993 437.353 156.035 438.176 156.035C438.176 162.606 438.176 169.22 438.176 175.791C439.351 175.833 440.292 175.875 441.349 175.875C443.465 174.284 445.463 172.735 447.578 171.145C448.401 171.187 449.223 171.27 450.046 171.312C450.046 179.474 450.046 187.636 450.046 195.798C461.916 171.312 453.69 146.617 460.976 122.131C462.622 137.158 464.385 152.184 466.147 167.21C480.603 145.906 475.197 124.308 475.667 102.794C476.137 100.827 476.607 98.8595 477.077 96.8922C477.783 96.8922 478.488 96.8922 479.193 96.8922C479.663 98.8595 480.251 100.827 480.721 102.794C480.721 125.145 480.721 147.496 480.721 169.889C481.896 169.889 483.071 169.889 484.247 169.889C485.539 157.709 486.95 145.529 488.242 133.349C496.587 129.875 489.3 124.141 502.698 121.127C505.637 120.457 503.756 117.151 504.109 115.058C506.929 126.484 506.812 137.869 506.929 149.254C506.929 152.226 507.164 155.198 507.987 158.128C512.571 173.656 517.977 189.143 522.09 204.672C523.618 210.406 522.443 216.224 522.443 222C523.736 222 524.793 222 526.439 222C526.439 212.331 526.439 202.662 526.439 192.994C526.791 192.994 527.849 192.994 528.554 192.952C529.612 194.04 530.787 195.128 531.845 196.217C532.668 196.175 533.491 196.133 534.313 196.091C535.959 178.26 537.604 160.472 539.132 142.641C540.19 142.641 541.13 142.641 542.305 142.683C542.305 152.226 542.305 161.769 542.305 171.312C542.658 171.312 543.128 171.27 543.48 171.229C548.416 159.886 553.47 148.543 558.406 137.2C559.347 137.241 560.169 137.241 561.344 137.283C561.344 145.864 561.344 154.444 561.344 163.025C562.52 163.025 563.342 163.025 564.635 163.025C564.635 145.194 564.635 127.405 564.635 109.575C565.458 109.575 566.163 109.575 566.868 109.575C568.866 127.405 570.864 145.236 572.745 163.067C573.92 163.067 575.213 163.067 576.388 163.025C576.388 155.156 576.388 147.329 576.388 138.706C593.077 144.692 586.495 151.431 587.318 157.542C588.258 163.946 587.435 170.35 587.435 176.795C588.728 176.795 590.256 176.795 591.431 176.795C591.431 167.587 591.431 158.379 591.431 149.17C592.607 149.17 593.429 149.17 594.37 149.129C596.72 156.914 599.071 164.657 601.421 172.442C603.302 172.401 604.947 172.317 607.063 172.275C607.063 162.355 607.063 152.435 607.063 142.515C608.238 142.515 609.883 142.557 611.176 142.557C611.176 157.625 611.176 172.694 611.176 187.762C611.999 187.762 612.351 187.762 612.939 187.762C614.467 180.814 615.877 173.866 617.405 166.876C618.815 166.917 620.108 166.959 621.518 166.959C621.988 169.345 622.459 171.731 622.929 174.117C623.751 174.117 624.692 174.117 625.514 174.117C625.867 171.27 626.337 168.382 626.69 165.536C627.747 165.536 628.687 165.536 629.863 165.536C629.863 169.764 629.863 173.949 629.863 178.177C630.215 178.177 630.921 178.177 631.391 178.135C635.857 165.243 640.205 152.352 644.671 139.46C646.199 139.502 647.845 139.544 649.372 139.627C649.372 143.436 649.372 147.203 649.372 151.012C650.548 151.012 651.84 151.012 653.016 151.012C653.016 140.13 653.016 129.247 653.016 118.323C654.191 123.01 656.189 127.698 656.424 132.386C656.894 142.222 656.659 152.059 656.659 161.853C657.599 161.853 658.539 161.853 659.48 161.853C661.595 151.305 663.593 140.716 665.709 130.168C666.296 130.168 667.001 130.168 667.589 130.21C668.059 133.056 668.647 135.944 669.117 138.79C670.292 138.79 671.467 138.79 672.643 138.748C672.643 131.758 672.643 124.81 672.643 117.82C673.818 117.82 675.463 117.82 676.756 117.862C678.166 127.029 679.577 136.153 680.987 145.32C681.575 145.32 682.28 145.32 682.868 145.32C683.338 142.934 683.808 140.548 684.16 138.162C684.748 138.162 685.453 138.162 686.041 138.162C688.039 151.138 690.154 164.155 692.152 177.13C705.903 161.351 701.437 144.985 703.082 128.87C704.493 128.87 705.903 128.912 707.196 128.912C707.196 151.18 707.196 173.489 707.196 195.756C710.839 189.143 707.901 182.362 711.309 176C718.361 162.355 711.074 148.543 720.594 134.772C727.293 125.103 721.651 114.346 721.416 104.091C721.887 103.673 721.887 103.212 721.534 102.794C722.004 99.571 722.474 96.3062 722.944 93.0833C723.885 93.0833 724.825 93.1252 726 93.1252C726 95.1343 726 97.1434 726 99.1943C726 119.704 725.882 140.171 726 160.681C726 162.481 725.765 165.745 727.058 165.829C744.334 167.043 736.695 171.815 737.048 174.912C738.105 183.744 737.4 192.575 737.4 201.407C738.693 201.407 739.868 201.407 741.161 201.449C741.161 199.063 741.161 196.677 741.161 194.291C741.161 171.982 741.161 149.673 741.161 127.363C741.161 120.08 741.161 112.798 741.396 105.515C741.396 104.426 743.276 103.38 744.334 102.292C744.687 102.459 745.157 102.627 745.627 102.794C742.689 115.853 748.918 128.452 761.611 140.883C761.611 137.367 761.611 133.893 761.611 130.377C761.963 130.377 762.551 130.419 763.021 130.419C764.902 150.301 766.782 170.224 768.662 190.106C769.838 190.106 771.013 190.064 772.188 190.064C772.188 166.876 772.188 143.645 772.188 120.457C773.364 120.457 774.656 120.457 775.832 120.457C775.832 146.952 775.832 173.489 775.832 199.984C780.298 191.905 782.766 183.785 783.236 175.665C784.058 163.36 783.236 151.012 783.588 138.706C783.706 136.321 786.056 133.977 787.349 131.591C789.817 139.041 780.298 147.245 799.572 154.486C799.572 149.254 799.572 144.734 799.572 140.213C800.747 142.641 802.51 145.069 802.628 147.496C802.98 155.951 802.275 164.364 802.98 172.819C803.568 180.06 805.566 187.259 807.094 194.501C808.387 194.501 809.797 194.459 811.09 194.459C811.09 168.55 811.09 142.599 811.09 116.69C812.265 116.69 813.558 116.69 814.38 116.69C814.38 119.16 814.38 121.629 814.38 124.141C814.38 146.701 814.263 169.303 814.616 191.864C814.616 195.087 816.966 198.268 818.141 201.491C819.434 201.449 820.727 201.407 822.02 201.365C822.02 199.105 822.02 196.845 822.02 194.626C822.02 177.298 821.667 159.969 822.372 142.641C822.49 138.999 827.191 135.358 829.659 131.716C830.952 142.641 832.245 153.607 833.537 164.532C834.243 164.49 834.948 164.49 835.653 164.448C837.416 159.593 839.179 154.737 840.824 149.924C842.587 156.202 844.467 162.481 846.23 168.717C846.7 168.759 847.288 168.801 847.758 168.843C848.463 166.834 849.051 164.825 849.756 162.857C850.931 162.857 852.107 162.857 853.4 162.857C854.927 167.964 856.573 173.112 858.101 178.219C860.451 170.936 859.746 163.695 860.569 156.453C861.391 149.338 856.455 142.013 865.505 134.479C877.61 140.883 867.855 147.747 874.672 153.775C875.847 151.305 875.377 148.877 875.965 146.408C876.787 142.892 878.315 139.376 879.49 135.902C880.783 154.109 882.194 172.317 883.486 190.482C883.486 190.692 883.369 190.943 883.604 191.152C884.662 192.198 885.72 193.203 886.777 194.208C888.188 194.124 889.715 194.04 891.126 193.998C891.126 186.087 890.42 178.177 891.361 170.266C892.066 163.82 886.542 157.123 898.765 150.97C902.996 148.836 902.408 145.278 902.526 142.39C902.996 133.935 902.643 125.522 902.878 117.067C902.878 115.518 904.524 113.969 905.346 112.463C907.109 112.505 908.872 112.588 910.518 112.63C910.518 127.991 910.518 143.352 910.518 158.714C911.693 158.714 913.338 158.714 914.631 158.672C914.631 151.012 914.631 143.394 914.631 135.735C915.454 135.735 916.512 135.693 917.452 135.693C920.743 144.776 924.033 153.816 927.442 162.899C928.382 162.857 929.322 162.857 930.145 162.816C930.145 146.952 930.145 131.047 930.145 115.183C936.256 129.666 928.499 144.441 941.192 158.797C941.192 146.534 941.192 134.27 941.192 122.048C942.368 122.006 943.308 121.964 944.366 121.922C950.242 135.023 956.118 148.082 961.995 161.183C963.522 161.183 965.05 161.141 966.578 161.141C968.811 153.147 971.279 145.152 973.512 137.158C974.217 137.158 974.923 137.158 975.745 137.158C975.745 144.943 975.745 152.728 975.745 160.513C976.921 160.513 978.566 160.513 980.094 160.513C981.739 147.664 983.267 134.856 985.03 120.876C987.263 127.112 989.143 132.177 991.024 137.241C991.376 138.162 991.846 139.083 992.199 140.004C992.904 139.962 993.492 139.92 994.197 139.878C994.785 137.158 995.372 134.437 995.96 131.758C996.665 131.8 997.253 131.8 997.958 131.842C1000.9 144.524 1003.83 157.207 1006.65 169.889C1007.6 169.847 1008.77 169.847 1009.59 169.805C1009.59 147.957 1009.59 126.066 1009.59 104.217C1009.95 103.798 1010.3 103.338 1010.3 102.92L1012.18 102.878L1014.06 102.92C1014.06 125.145 1014.06 147.371 1014.06 169.596C1015.7 169.596 1017.82 169.596 1019.82 169.596C1020.76 151.556 1021.7 133.558 1022.76 115.518C1023.34 115.518 1023.93 115.56 1024.52 115.56C1025.81 121.127 1027.1 126.694 1028.4 132.261C1029.69 132.302 1030.87 132.344 1032.16 132.386C1034.51 130.67 1036.86 128.954 1039.33 127.196C1040.39 127.196 1041.56 127.196 1042.62 127.238C1043.79 136.446 1044.97 145.655 1046.14 154.863C1047.08 154.863 1048.02 154.863 1048.85 154.863C1048.85 144.901 1048.85 134.939 1048.85 124.978C1050.02 127.363 1051.9 129.707 1052.49 132.093C1054.49 140.046 1056.13 148.04 1057.9 156.035C1058.48 156.035 1059.07 155.993 1059.54 155.993C1061.07 147.036 1062.6 138.079 1064.24 129.121C1066.24 130.503 1068.24 131.842 1072 134.437C1072 130.168 1071.29 127.28 1072.35 124.434C1072.71 123.303 1076.82 122.341 1079.17 121.336C1081.28 129.707 1083.28 138.079 1085.28 146.45C1086.57 146.45 1087.98 146.45 1089.16 146.45C1089.16 134.772 1089.16 123.094 1089.16 111.416C1091.16 111.416 1092.8 111.416 1094.45 111.416C1094.45 126.359 1094.45 141.26 1094.45 156.202C1095.62 156.244 1096.8 156.244 1097.86 156.286C1099.97 150.803 1102.09 145.32 1104.2 139.795C1105.73 140.381 1107.14 140.925 1108.9 141.595C1110.78 133.223 1112.55 125.103 1114.31 116.983C1122.89 116.355 1121.48 118.657 1121.6 120.332C1122.07 125.898 1122.18 131.507 1122.42 137.074C1122.54 137.283 1122.54 137.534 1122.89 137.744C1123.12 137.953 1123.71 138.079 1124.06 138.246C1125.83 136.572 1128.88 134.898 1129.12 133.181C1129.71 126.861 1129.35 120.541 1129.35 114.221C1136.29 126.819 1128.77 139.669 1140.99 152.1C1140.99 143.52 1140.99 134.981 1140.99 126.401C1142.16 126.401 1143.81 126.401 1145.1 126.359C1145.1 133.014 1145.1 139.711 1145.1 146.366C1145.45 146.324 1145.92 146.282 1146.28 146.241C1149.69 135.986 1153.21 125.731 1156.62 115.476C1157.68 115.518 1158.85 115.518 1159.91 115.56C1161.79 121.336 1163.79 127.154 1165.79 132.93C1166.37 132.93 1166.73 132.93 1167.55 132.93C1167.55 122.969 1167.55 112.965 1167.55 103.003C1167.55 101.203 1167.9 99.4455 1168.14 97.6875C1169.55 99.4873 1170.84 101.245 1172.25 103.045C1171.9 103.464 1171.9 103.882 1172.25 104.343C1172.13 115.309 1169.08 126.359 1177.66 137.618C1179.18 135.944 1180.24 134.772 1181.3 133.642C1182.12 133.684 1183.18 133.767 1184 133.809C1184 138.999 1184 144.148 1184 149.338C1185.18 149.38 1186.59 149.38 1188 149.422C1189.06 145.948 1190.35 142.432 1191.05 138.958C1192.58 132.009 1193.64 125.019 1194.93 118.071C1198.93 120.959 1202.81 123.889 1208.92 128.326C1209.86 122.215 1210.56 117.569 1211.27 112.923C1217.62 121.964 1206.69 131.758 1224.32 139.962C1228.66 132.679 1233.13 125.354 1238.42 116.481C1241.36 121.713 1243.47 125.271 1245.47 128.787C1246.88 128.745 1248.17 128.661 1249.82 128.619C1249.82 122.508 1249.82 116.397 1249.82 110.244C1249.82 110.286 1250.17 110.286 1250.52 110.328C1253.46 120.206 1256.4 130.042 1259.46 139.92C1261.22 139.92 1263.1 139.92 1264.86 139.92C1267.33 131.8 1269.8 123.68 1272.15 115.602C1276.5 115.727 1278.61 115.644 1278.85 115.811C1281.55 118.699 1284.14 121.587 1287.78 125.815C1290.13 122.508 1291.66 120.457 1293.89 117.318C1296.59 129.163 1296.36 129.163 1312.23 128.954C1312.23 124.182 1312.23 119.369 1312.23 114.597C1313.05 114.597 1314.46 114.555 1315.63 114.555C1317.63 117.737 1319.63 120.918 1321.63 124.057C1323.63 126.066 1325.62 128.075 1328.09 130.545C1330.09 126.317 1331.74 122.885 1333.5 119.118C1338.08 120.959 1341.49 122.341 1344.78 123.722C1345.13 124.978 1345.37 126.233 1345.72 127.531C1346.66 127.531 1347.84 127.531 1348.66 127.489C1348.66 121.211 1348.66 114.932 1348.66 108.654C1349.83 108.612 1351.13 108.57 1352.3 108.57C1354.3 113.551 1356.3 118.532 1358.41 123.806C1359.71 123.052 1360.53 122.508 1361.47 122.006C1361.7 121.922 1362.53 122.006 1363 122.006C1364.17 123.513 1365.23 125.061 1366.41 126.61C1367.35 126.568 1368.29 126.526 1369.23 126.484C1371.46 121.88 1373.69 117.318 1375.93 112.714C1379.22 117.569 1382.27 122.424 1385.56 127.28C1386.5 127.28 1387.44 127.28 1388.27 127.28C1388.27 122.717 1388.27 118.155 1388.27 113.551C1389.91 113.509 1390.97 113.467 1392.26 113.425C1396.61 117.695 1401.08 121.964 1405.54 126.233C1422.94 122.508 1407.07 114.472 1421.17 109.868C1422 113.425 1422.82 116.774 1423.52 120.122C1425.05 120.08 1426.58 120.08 1428.11 120.039C1429.05 116.732 1429.99 113.425 1430.69 110.998C1435.39 115.058 1440.68 119.536 1446.79 124.852C1451.85 121.043 1455.49 118.281 1460.78 114.388C1463.25 117.234 1464.66 118.867 1467.13 121.755C1468.07 117.653 1468.65 115.1 1469.48 111.04C1471.71 113.635 1472.65 114.723 1473.47 115.769C1476.18 115.225 1478.76 114.723 1481.58 114.137C1483.35 116.355 1484.87 118.197 1486.99 120.792C1493.1 119.118 1497.57 117.904 1501.68 116.816C1502.38 117.485 1503.44 118.616 1505.21 120.332C1512.26 117.695 1518.02 115.518 1523.42 113.509C1527.3 115.602 1530.94 117.611 1534.59 119.62C1535.76 119.536 1536.82 119.495 1538 119.411C1538 115.937 1538 112.463 1538 108.947C1538.82 108.989 1539.52 108.989 1540.35 109.03C1541.05 111.877 1541.87 114.723 1542.7 118.03C1555.04 113.97 1562.68 109.951 1560.91 104.426L1562.44 104.384L1563.97 104.426C1566.55 109.658 1569.26 114.848 1571.73 119.787C1583.24 119.871 1587.36 118.323 1590.06 115.141C1592.06 112.881 1598.87 111.165 1604.16 108.863C1606.98 112.756 1609.33 115.937 1612.04 119.62C1630.02 116.355 1639.54 112.044 1641.07 105.598C1645.65 110.119 1650.23 114.681 1655.05 119.411C1656.11 117.737 1657.05 116.313 1658.11 114.807C1661.28 115.518 1663.4 115.937 1664.22 116.146C1670.68 113.258 1676.56 110.579 1684.32 107.105C1687.84 111.416 1690.55 114.848 1693.95 119.034C1698.66 116.69 1702.53 114.681 1706.53 112.756C1713.7 109.407 1724.28 109.658 1729.33 113.342C1731.44 114.848 1732.86 116.481 1734.03 117.569C1738.85 114.89 1743.55 112.337 1748.25 109.742C1755.3 110.077 1762.35 110.412 1770.46 110.788C1771.05 111.542 1772.11 112.798 1773.4 114.346C1777.05 112.379 1780.34 110.579 1784.8 108.11C1793.62 113.886 1805.25 111.04 1816.06 110.412C1821 110.119 1826.52 107.9 1830.05 111.249C1830.52 111.709 1835.34 111.96 1837.69 111.709C1846.39 110.788 1854.73 109.575 1864.25 108.361C1866.01 109.575 1867.66 110.705 1869.3 111.835C1884.58 111.333 1898.33 105.849 1915.14 110.077C1916.43 110.412 1919.14 110.537 1920.55 110.286C1938.29 107.105 1958.16 108.612 1976.02 108.57C2016.8 108.528 2057.47 105.515 2098.25 108.026C2100.01 108.152 2102.01 107.984 2103.89 107.9C2122.22 107.398 2140.56 106.938 2158.89 106.435C2169.47 106.142 2180.05 105.808 2190.62 105.515C2205.67 105.64 2220.59 105.891 2235.64 105.849C2296.4 105.808 2357.04 105.682 2417.8 105.473C2423.33 105.473 2428.85 104.803 2434.49 104.468C2441.66 104.845 2448.6 105.263 2456 105.64C2456 104.719 2456 103.798 2456 102.92C2450.01 102.041 2443.42 101.287 2436.61 101.245Z" fill="white"/>
</g>
</g>
</svg>
